<?xml version="1.0" encoding="utf-8"?>
<!-- Generator: Adobe Illustrator 27.2.0, SVG Export Plug-In . SVG Version: 6.00 Build 0)  -->
<svg version="1.1" id="Layer_1" xmlns="http://www.w3.org/2000/svg" xmlns:xlink="http://www.w3.org/1999/xlink" x="0px" y="0px"
	 viewBox="0 0 296.3 296.1" style="enable-background:new 0 0 296.3 296.1;" xml:space="preserve">
<style type="text/css">
	.st0{fill:#FFFFFF;}
	.st1{fill:#666666;stroke:#666666;stroke-miterlimit:10;}
</style>
<g>
	<circle class="st0" cx="148" cy="147.4" r="143.2"/>
	<path class="st1" d="M148.1,8.5C78.6,8.6,19.8,60.1,10.1,129.4C-0.6,206.2,54,277.8,130.5,287.2c26.2,3.2,51.4-0.4,75.4-11.5
		c0.6-0.3,1.2-0.6,1.8-0.8c2.2-0.9,4.6-2.1,5.9,1c1.1,2.8-1.1,3.8-3.1,4.8c-15.6,7.6-32.1,12.1-49.3,13.4
		c-38.4,2.9-73.3-6.9-103.5-31.1c-31.7-25.5-50-58.7-54.5-99.2c-2.8-25,0.5-49.4,10.8-72.2c22.6-50.2,61.2-80.3,116-87.8
		c40.9-5.6,78,5,110.1,31.1c33,26.9,51.2,62,54,104.6c2.3,35.2-7.2,67.2-28.1,95.7c-0.5,0.7-0.9,1.4-1.5,2c-1.3,1.5-2.9,2.4-4.8,1
		c-1.8-1.4-1.5-3.1-0.3-4.9c3.8-5.3,7.5-10.6,10.7-16.3c31-54.3,20.9-125.4-24.2-168.7C218.5,22.1,185.8,9.1,148.1,8.5L148.1,8.5z"
		/>
	<path class="st1" d="M256.6,245.5c-0.2,1.4-1.1,2.4-2,3.3c-3.7,3.5-7.4,7-11.1,10.5c-1.6,1.6-3.5,2.2-5.2,0.3
		c-1.7-1.9-0.7-3.6,0.9-5.1c3.8-3.6,7.6-7.3,11.4-11c1.3-1.2,2.7-1.9,4.4-0.9C256.1,243.2,256.5,244.2,256.6,245.5L256.6,245.5z"/>
</g>
</svg>

