<?xml version="1.0" encoding="utf-8"?>
<!-- Generator: Adobe Illustrator 16.0.0, SVG Export Plug-In . SVG Version: 6.00 Build 0)  -->
<!DOCTYPE svg PUBLIC "-//W3C//DTD SVG 1.1//EN" "http://www.w3.org/Graphics/SVG/1.1/DTD/svg11.dtd">
<svg version="1.1" id="Layer_1" xmlns="http://www.w3.org/2000/svg" xmlns:xlink="http://www.w3.org/1999/xlink" x="0px" y="0px"
	 width="50px" height="50px" viewBox="0 0 245.455 156.818" enable-background="new 0 0 245.455 156.818"
	 xml:space="preserve">
<g>
	<polygon fill="#FED393" stroke="#45250F" stroke-width="2.067" stroke-miterlimit="10" points="18.9,130.327 31.64,151.449 
		189.835,151.449 202.574,130.327 	"/>
	<g>
		<path fill="#E6E7E8" stroke="#45250F" stroke-width="2.067" stroke-miterlimit="10" d="M129.438,22.562V20.16
			c0-7.091-5.75-12.84-12.841-12.84h-1.041c-7.091,0-12.84,5.749-12.84,12.84v3.704h0.056c6.125-1.045,12.418-1.6,18.842-1.6
			C124.246,22.265,126.851,22.38,129.438,22.562L129.438,22.562z"/>
		<path fill="#E6E7E8" stroke="#45250F" stroke-width="2.067" stroke-miterlimit="10" d="M134.774,23.061
			c0.1,0.011,0.197,0.019,0.297,0.03C134.974,23.081,134.874,23.072,134.774,23.061z"/>
	</g>
	<polygon fill="none" stroke="#45250F" stroke-width="6.2009" stroke-linejoin="round" stroke-miterlimit="10" points="
		5.825,109.207 5.825,130.327 18.9,130.327 31.64,151.451 213.356,151.451 226.099,130.327 239.172,130.327 239.172,109.207 	"/>
	
		<line fill="none" stroke="#45250F" stroke-width="6.2009" stroke-linejoin="round" stroke-miterlimit="10" x1="18.9" y1="130.327" x2="108.92" y2="130.327"/>
	
		<line fill="none" stroke="#45250F" stroke-width="6.2009" stroke-linejoin="round" stroke-miterlimit="10" x1="120.487" y1="130.327" x2="137.082" y2="130.327"/>
	<path fill="none" stroke="#45250F" stroke-width="6.2009" stroke-linejoin="round" stroke-miterlimit="10" d="M230.288,109.207
		c-11.152-49.753-55.557-86.941-108.674-86.941S24.092,59.453,12.94,109.207H230.288z"/>
	<path fill="none" stroke="#45250F" stroke-width="6.2009" stroke-linejoin="round" stroke-miterlimit="10" d="M155.479,50.255
		c-5.815-2.562-11.979-4.483-18.396-5.677"/>
	<path fill="none" stroke="#45250F" stroke-width="6.2009" stroke-linejoin="round" stroke-miterlimit="10" d="M200.594,98.274
		c-6.663-18.124-19.376-33.322-35.698-43.139"/>
	<path fill="none" stroke="#45250F" stroke-width="6.2009" stroke-linejoin="round" stroke-miterlimit="10" d="M140.513,23.865
		v-3.704c0-7.092-5.748-12.841-12.843-12.841h-12.112c-7.092,0-12.841,5.749-12.841,12.841v3.703"/>
	
		<line fill="none" stroke="#45250F" stroke-width="6.2009" stroke-linejoin="round" stroke-miterlimit="10" x1="226.099" y1="130.327" x2="155.479" y2="130.327"/>
</g>
</svg>
