<?xml version="1.0" encoding="utf-8"?>
<!-- Generator: Adobe Illustrator 27.2.0, SVG Export Plug-In . SVG Version: 6.00 Build 0)  -->
<svg version="1.1" id="Layer_1" xmlns="http://www.w3.org/2000/svg" xmlns:xlink="http://www.w3.org/1999/xlink" x="0px" y="0px"
	 viewBox="0 0 296.3 296.1" style="enable-background:new 0 0 296.3 296.1;" xml:space="preserve" width="100px">
<style type="text/css">
	.st0{fill:#f5f3f0;}
	.st1{fill:#666666;stroke:#666666;stroke-miterlimit:10;}
	.st2{fill:none;stroke:#D3AA00;stroke-miterlimit:10;}
	.st3{opacity:0.25;fill:none;stroke:#666666;stroke-miterlimit:10;enable-background:new    ;}
	.st4{fill:#666666;}
</style>
<g>
	<circle class="st0" cx="148" cy="147.4" r="143.2"/>
	<path class="st1" d="M148.1,8.5C78.6,8.6,19.8,60.1,10.1,129.4C-0.6,206.2,54,277.8,130.5,287.2c26.2,3.2,51.4-0.4,75.4-11.5
		c0.6-0.3,1.2-0.6,1.8-0.8c2.2-0.9,4.6-2.1,5.9,1c1.1,2.8-1.1,3.8-3.1,4.8c-15.6,7.6-32.1,12.1-49.3,13.4
		c-38.4,2.9-73.3-6.9-103.5-31.1c-31.7-25.5-50-58.7-54.5-99.2c-2.8-25,0.5-49.4,10.8-72.2c22.6-50.2,61.2-80.3,116-87.8
		c40.9-5.6,78,5,110.1,31.1c33,26.9,51.2,62,54,104.6c2.3,35.2-7.2,67.2-28.1,95.7c-0.5,0.7-0.9,1.4-1.5,2c-1.3,1.5-2.9,2.4-4.8,1
		c-1.8-1.4-1.5-3.1-0.3-4.9c3.8-5.3,7.5-10.6,10.7-16.3c31-54.3,20.9-125.4-24.2-168.7C218.5,22.1,185.8,9.1,148.1,8.5L148.1,8.5z"
		/>
	<path class="st1" d="M253.9,148.2c0-11.8-1.6-23.2-5.7-34.3c-0.9-2.5-2.4-5.6,1.2-6.8c3.8-1.3,4.1,2.4,4.9,4.8
		c14.9,40.7,2.1,90.8-30.3,119.3c-27.6,24.3-59.6,33.9-95.7,27.6c-44-7.7-83.4-42.9-90.7-94c-1.6-11-1.6-21.9,0-32.9
		c0.3-2.4,0.5-5.1,3.8-4.7c3.3,0.4,2.8,2.9,2.5,5.4c-4.5,35.9,5.8,66.8,31.7,92.2c9.6,9.4,20.8,16.6,33.3,21.6
		c61.3,24.6,129.9-11.9,143.4-77.9C253.5,161.9,253.9,155.1,253.9,148.2L253.9,148.2z"/>
	<path class="st1" d="M151.4,36.1c32.9,1.8,60,14.3,81.5,38.7c0.2,0.2,0.5,0.5,0.7,0.8c1.3,2.1,4.6,4.1,1.6,6.7
		c-3,2.7-4.7-0.6-6.4-2.5c-34.7-39-86.7-48.3-132.3-23.6c-2.6,1.4-5.1,3.2-7.6,4.8c-2.1,1.3-4.3,3.5-6.3,0.3c-2-3.1,1-4.4,3-5.8
		c10.2-7.1,21.4-12.1,33.3-15.4C129.7,37.2,140.7,36.1,151.4,36.1L151.4,36.1z"/>
	<path class="st1" d="M256.6,245.5c-0.2,1.4-1.1,2.4-2,3.3c-3.7,3.5-7.4,7-11.1,10.5c-1.6,1.6-3.5,2.2-5.2,0.3
		c-1.7-1.9-0.7-3.6,0.9-5.1c3.8-3.6,7.6-7.3,11.4-11c1.3-1.2,2.7-1.9,4.4-0.9C256.1,243.2,256.5,244.2,256.6,245.5L256.6,245.5z"/>
	<circle class="st2" cx="147.3" cy="150.5" r="126"/>
	<circle class="st3" cx="147.3" cy="150.5" r="88"/>
	<path class="st1" d="M54.5,98.4c0.4,1.4,0,2.6-0.5,3.9c-1.9,4.7-4,9.4-5.9,14.1c-0.9,2.1-2.3,3.4-4.6,2.4c-2.3-1.1-2.1-3-1.2-5.1
		c2-4.9,4-9.8,6-14.7c0.7-1.7,1.7-2.9,3.7-2.7C53.1,96.5,53.9,97.3,54.5,98.4L54.5,98.4z"/>

	<path class="st4" d="M113.4,205.7c-0.7,0.4-2.1,0.7-3.9,0.7c-4.2,0-7.3-2.6-7.3-7.5s3.2-7.8,7.8-7.8c1.8,0,3,0.4,3.5,0.7l-0.5,1.6
		c-0.7-0.4-1.8-0.6-3-0.6c-3.5,0-5.8,2.2-5.8,6.1c0,3.6,2.1,6,5.7,6c1.2,0,2.3-0.2,3.1-0.6L113.4,205.7L113.4,205.7z"/>
	<path class="st4" d="M118.3,201.5l-1.5,4.7h-2l5-14.8h2.3l5.1,14.8h-2.1l-1.6-4.7H118.3L118.3,201.5z M123.2,200l-1.4-4.3
		c-0.3-1-0.6-1.9-0.8-2.7h0c-0.2,0.9-0.5,1.8-0.8,2.7l-1.4,4.3L123.2,200L123.2,200z"/>
	<path class="st4" d="M130.5,193H126v-1.6h11v1.6h-4.5v13.2h-1.9V193z"/>
	<path class="st4" d="M146.3,199.2h-5.8v5.4h6.4v1.6h-8.3v-14.8h8v1.6h-6.1v4.7h5.8L146.3,199.2L146.3,199.2z"/>
	<path class="st4" d="M149.5,191.6c1-0.2,2.4-0.3,3.7-0.3c2.1,0,3.4,0.4,4.3,1.2c0.8,0.7,1.2,1.7,1.2,2.8c0,2-1.2,3.3-2.8,3.8v0.1
		c1.1,0.4,1.8,1.4,2.2,3c0.5,2.1,0.8,3.5,1.1,4.1h-2c-0.2-0.4-0.6-1.7-1-3.5c-0.4-2.1-1.2-2.8-3-2.9h-1.8v6.4h-1.9L149.5,191.6
		L149.5,191.6z M151.4,198.3h2c2.1,0,3.3-1.1,3.3-2.8c0-1.9-1.4-2.8-3.4-2.8c-0.9,0-1.6,0.1-1.9,0.2V198.3L151.4,198.3z"/>
	<path class="st4" d="M163.2,191.4v14.8h-1.9v-14.8H163.2z"/>
	<path class="st4" d="M166.6,206.2v-14.8h2.1l4.8,7.5c1.1,1.7,2,3.3,2.7,4.8l0,0c-0.2-2-0.2-3.8-0.2-6.1v-6.2h1.8v14.8h-1.9
		l-4.7-7.5c-1-1.6-2-3.3-2.8-4.9l-0.1,0c0.1,1.9,0.1,3.6,0.1,6.1v6.3H166.6L166.6,206.2z"/>
	<path class="st4" d="M192.3,205.5c-0.9,0.3-2.6,0.8-4.6,0.8c-2.2,0-4.1-0.6-5.5-2c-1.3-1.2-2.1-3.2-2.1-5.5c0-4.4,3.1-7.7,8-7.7
		c1.7,0,3.1,0.4,3.7,0.7l-0.5,1.6c-0.8-0.4-1.8-0.6-3.3-0.6c-3.6,0-6,2.2-6,6s2.3,6,5.7,6c1.2,0,2.1-0.2,2.6-0.4v-4.4h-3v-1.5h4.9
		L192.3,205.5L192.3,205.5z"/>

	<path d="M123.1,102.1C112.4,119.6,96.4,150,92.9,163c-0.6,2.2,0,4.1,0.6,5.3c0.6,1.8-2.8,3.4-2.9,0.2
		c-0.4-11.4,20.3-51.2,29.3-66.9c-16.3-2.6-36.7-5.4-49-4.1c-4.5,0.5-13.9,2.7-10.8,10.3c1.8,4.6,5.3,9.7,7.9,12.9
		c2.2,2.7,0.9,2.4-0.5,0.9c-4-4.1-6.6-7.3-8.9-11.6c-4.3-7.9,6-13.4,11.5-14.5c9.2-1.9,32.8,0.9,51.5,2.8c0.9-1.3,1.6-2.3,2.1-2.8
		c0.4-0.4,0.2-1.1-0.3-1c-0.5,0.1-1.5,0.3-2.2,0.6c-1.2,0.4-1.2-0.3-0.2-0.9c1.4-1.1,4.2-3.2,5.9-3.4c1.5-0.3,2.6,1.4,1.6,2.8
		c-0.9,1.6-2.2,3.4-3.5,5.3c7.8,0.9,14.6,1.6,18.5,1.6c2,0,2.4-1.3,2.2-2.3c-0.2-1.1-0.3-1.8-0.9-3c-0.9-2.3,0-2.8,1.2-0.7
		c0.7,1.2,2.5,4.3,1.5,6.7c-0.4,0.6-0.9,1.7-1.8,2.5c-1.1,0.9-1.9,1.6-3.2,1.5C139,104.6,131.8,103.6,123.1,102.1L123.1,102.1z"/>
	<path d="M104.3,163.1c-1,0-1.5-0.7-1.5-2.1c0-2.9,2.2-6.5,6.7-11c4.1-4.1,7.8-6.7,10.9-7.9c0.7-0.3,1.6-0.5,2.5-0.5
		c1,0,1.9,0.2,2.9,0.6c0.6,0.1,1,0.1,1.2,0.1c0.7-0.1,1.2-0.4,1.6-0.8c0.1-0.1,0.2-0.1,0.4-0.1c0.3,0,0.6,0.6,0.6,0.7
		c-2.3,3.6-4.7,7.1-6.8,10.7c-3.4,5.7-6.7,15.4-7.4,20.1c-0.1,0.4-0.1,0.8-0.1,1.1c0,2.7,1.8,4.1,4.7,4.1c1.4,0,2.9-0.2,4.3-0.7
		c2.2-0.7,5-2.5,8.4-5.2c3.3-2.7,5.9-5.6,7.9-8.1c0.4-0.4,0.6-0.6,0.7-0.6c0.1,0.1,0.1,0.1,0.1,0.2c0,0.2-0.1,0.4-0.2,0.7
		c-1.8,2.7-4.5,5.9-8.1,9c-3.3,2.7-6.1,4.5-8.3,5.3c-1.1,0.4-2.2,0.6-3.5,0.6c-1.9,0-3.6-0.8-4.8-1.6c-1.5-1-2.1-2.7-2-4.7
		c0.1-3.4,2.8-12.1,5-16.8c1.3-2.9,2.7-5.4,4.1-7.5c0.3-0.5,0.3-0.7-0.1-0.7c-0.1,0-0.1,0.1-0.2,0.1c-1.9,2.3-4.7,4.9-8.2,7.9
		c-3.5,3-6.5,5.2-9.2,6.7C105.3,162.9,104.8,163.1,104.3,163.1L104.3,163.1z M106.5,158.9c0,1,0.4,1.4,1.1,1.4
		c0.2,0,0.6-0.1,0.9-0.3c4.5-2.9,9.5-7.7,15.2-14.5c0.1-0.1,0.2-0.2,0.2-0.4c0-0.9-1.2-1.8-2.8-1.8c-0.5,0-0.9,0.1-1.4,0.2
		c-1.9,0.5-4.4,2.4-7.2,5.5c-2.7,3-4.6,5.9-5.8,8.5C106.5,157.9,106.5,158.4,106.5,158.9L106.5,158.9z"/>
	<path d="M123.7,164.2c-0.1-0.2-0.1-0.4,0.1-0.6c3.9-6.1,6.6-10.7,8-14c0.2-0.6,0.4-1.1,0.4-1.5c0-0.1-0.1-0.3-0.2-0.7
		c-0.1-0.2-0.1-0.3,0-0.4c0.5-0.2,2-1,4.5-2.5c0.1-0.1,0.2-0.1,0.2-0.1c0.2,0,0.4,0.1,0.5,0.3c0.1,0.2,0.1,0.5-0.1,0.7
		c-2.6,3.5-4.4,6.2-5.3,7.9c-0.1,0.2-0.2,0.4-0.2,0.6s0.2,0.2,0.7,0.1c0.3-0.1,0.6-0.3,0.7-0.5c1.5-1.8,3.6-3.8,6.1-5.9
		c2.6-2.1,4.6-3.4,6.1-4.1c1.3-0.1,2.2,0.1,2.8,0.4c0,0,0.1,0.1,0.1,0.1c0,0.6-1.3,1.9-1.8,1.6c-0.9-0.4-1.9-0.2-3.3,0.5
		c-5.9,3.3-11.3,8.7-16,16.5c0,0.1-0.1,0.2-0.5,0.4c-0.6,0.2-1.4,0.6-2.5,1.2C123.9,164.5,123.8,164.5,123.7,164.2L123.7,164.2z"/>
	<path d="M168.2,135.3c-0.6-0.1-1.3-0.1-1.8-0.3c-1.1-0.1-2.2-1.6-2.2-2.9c0-0.5,0.2-0.8,0.4-1c2-2.2,5-3.6,8.9-4.5h0.1
		c2.3-3.4,4.4-6.4,6.2-8.7c9.2-11.8,18.5-19.3,28.1-22.7c3.2-1.1,6.3-1.7,9.4-1.7c5.2,0,9.5,1.5,13,4.4c3.3,2.8,5,6.2,5,10.1
		c0,3-1,5.8-3.1,8.5c-2.2,2.9-5.6,5.4-10,7.5c-16.2,7.6-32.1,11.4-47.7,11.4c-1.5,0-2.9,0-4.2-0.1c-1.8,3.1-3.6,6.2-5.3,9.7
		c-3.8,7.4-5.7,13.1-5.6,17.4c0,0.2,0.1,0.4,0.4,0.7c0.3,0.1,0.6,0.1,1,0.2c0.2,0.1,0.2,0.2,0.1,0.5c-0.1,0.2-0.2,0.4-0.5,0.4
		c-0.4,0.2-0.9,0.1-1.3-0.4c-0.4-0.7-0.7-1.6-0.7-2.8c0-2.4,1.1-6.5,3.5-12.8c0.2-0.7,0.2-1-0.3-1c-0.1,0-0.2,0.1-0.4,0.2
		c-2.1,2.6-4.9,5.5-8.4,8.7c-4.1,3.6-7.4,6.1-9.9,7.1c-0.2,0.1-0.4,0.1-0.6,0.1c-1.5,0-2.2-0.7-2.2-2.1c0-2.7,2.4-6.3,7.1-10.8
		c4.3-4.1,7.9-6.7,11-7.9c0.7-0.3,1.6-0.5,2.5-0.5c0.9,0,2,0.2,3.3,0.6C165.4,140.1,166.8,137.6,168.2,135.3L168.2,135.3z
		 M143.5,159.5c0,0.9,0.4,1.3,1,1.3c0.3,0,0.7-0.1,1-0.3c5.3-3.4,10.4-7.9,15.3-13.6c0.5-0.6,0.7-1.1,0.7-1.6c0-0.9-0.7-1.4-2.2-1.4
		c-0.5,0-1,0.1-1.6,0.2c-2.1,0.5-4.6,2.4-7.8,5.4c-3.1,3.1-5.1,6-6.2,8.5C143.7,158.6,143.5,159,143.5,159.5L143.5,159.5z
		 M168.8,134.4c1.6-2.5,3.1-5,4.5-7.2c-3.5,1-6,2.5-7.7,4.5c-0.3,0.3-0.4,0.7-0.4,1.1c0,0.7,0.4,1.1,1.3,1.2
		C167.2,134.2,168,134.3,168.8,134.4L168.8,134.4z M170.8,134.6c1.1,0.1,2.2,0.1,3.6,0.1c16.8,0,32.5-4.2,46.9-12.6
		c8.4-4.8,12.6-10,12.6-15.4c0-3.4-1.7-6.4-5.1-8.7s-7.3-3.6-11.9-3.6c-3,0-5.9,0.6-8.7,1.8C195.2,101.6,182.7,114.4,170.8,134.6
		L170.8,134.6z"/>
	<path d="M170.7,163.8c-0.9,0.4-4.6-0.7-4.5-3.6c0.1-3.9,6.4-15.4,6.6-16.4c0.3-1.9,3.9-1.4,2.4,1.5c-8.2,15.6-3.8,7.3-6.7,13.3
		c-2,4.1,0.4,4.1,1.9,3.7c3-0.7,5.2-2.2,7.4-4.3c1.4-1.4,1.3-0.2,0.4,0.7C176.2,160.6,174.2,162.3,170.7,163.8L170.7,163.8z
		 M177.4,139.2c-0.9,0.9-1.6,1.2-2.2,1.1c-0.9-0.2-1.3-0.5-1.3-1c0-0.5,0.4-1.3,1.4-2.2c0.9-1,1.6-1.5,2.2-1.6
		c0.9-0.2,1.9,0.7,1.6,1.4C179,137.5,178.5,138.3,177.4,139.2L177.4,139.2z"/>
	<path d="M185.5,139.1c-0.2,0-0.4-0.1-0.4-0.4c0-0.1,0.1-0.3,0.2-0.4c2.4-1.6,3.7-3.6,3.9-5.9c0.1-0.6-0.2-1.3-0.7-2.3
		c-0.2-0.2,0.1-0.7,0.9-1.2c0.8-0.6,1.3-0.8,1.5-0.7c0.4,0.1,0.6,0.5,0.9,1.4c0.3,1,0.4,1.6,0.2,2c-0.7,2-2.8,4.5-6.2,7.4
		C185.7,139,185.6,139.1,185.5,139.1L185.5,139.1z"/>
	<path d="M213.8,150.6L213.8,150.6c-5.6,1.1-11.5,3.6-17.9,7.3c1,1.4,1.4,2.3,1.4,2.9c0,1.1-1.3,2.2-4,3.4c-2.3,1-4.2,1.5-5.5,1.5
		c-0.5,0-0.9-0.1-1.3-0.2c-1.1,0.2-1.8,0.4-2.2,0.2c-0.6-0.1-0.7-0.3-0.4-0.8c0.7-0.9,3.4-3,8.2-6.2l-1.9-2.6
		c-0.9-1.1-1.3-2.2-1.4-3.3c-0.4-2.7,2.4-5.7,8.2-9.1c5.8-3.4,11-5.1,15.4-5c0.2,0,0.5,0.1,0.7,0.4c0.2,0.4,0.2,0.6,0,0.8
		c-0.5,0.8-2.2,1.9-2.7,1.7c-1.8-0.6-3.1-0.9-4-0.9c-0.5,0-1,0.1-1.3,0.1c-2.2,0.5-4.9,1.9-8,4.1c-3.8,2.6-5.6,4.9-5.3,6.9
		c0.1,0.9,0.6,1.9,1.3,3.1c0.8,1.1,1.4,1.9,2.1,2.2C201.6,153.4,207.8,151.6,213.8,150.6L213.8,150.6z M187.3,164.9
		c0.7,0.2,2-0.1,3.7-0.7c1.6-0.6,2.7-1.1,3.1-1.7c0.2-0.2,0.2-0.5,0.2-0.7c0-0.7-0.5-1.4-1.4-2.2c-0.6,0.4-1.6,1-3,2.1
		c-1.6,1.1-2.6,1.9-3,2.5C186.8,164.6,186.9,164.9,187.3,164.9L187.3,164.9z"/>
</g>
<path d="M177.4,139.2c-0.9,0.9-1.6,1.2-2.2,1.1c-0.9-0.2-1.3-0.5-1.3-1c0-0.5,0.4-1.3,1.4-2.2c0.9-1,1.6-1.5,2.2-1.6
	c0.9-0.2,1.9,0.7,1.6,1.4C179,137.5,178.5,138.3,177.4,139.2L177.4,139.2z"/>
</svg>
