<?xml version="1.0" encoding="utf-8"?>
<!-- Generator: Adobe Illustrator 16.0.0, SVG Export Plug-In . SVG Version: 6.00 Build 0)  -->
<!DOCTYPE svg PUBLIC "-//W3C//DTD SVG 1.1//EN" "http://www.w3.org/Graphics/SVG/1.1/DTD/svg11.dtd">
<svg version="1.1" id="Layer_1" xmlns="http://www.w3.org/2000/svg" xmlns:xlink="http://www.w3.org/1999/xlink" x="0px" y="0px"
	 width="50px" height="50px" viewBox="0 0 175 201.137" enable-background="new 0 0 175 201.137" xml:space="preserve">
<g>
	<polygon fill="#FED393" stroke="#45250F" stroke-width="1.7687" stroke-miterlimit="10" points="100.863,109.911 94.18,103.229 
		94.632,104.131 90.667,114.264 75.208,108.214 79.174,98.079 53.159,98.079 59.34,183.495 103.898,183.495 109.875,100.896 	"/>
	
		<rect x="92.565" y="89.871" transform="matrix(-0.7071 -0.7071 0.7071 -0.7071 102.7685 238.9107)" fill="none" stroke="#45250F" stroke-width="5.3062" stroke-linejoin="round" stroke-miterlimit="10" width="16.601" height="16.598"/>
	<polyline fill="none" stroke="#45250F" stroke-width="5.3062" stroke-linejoin="round" stroke-miterlimit="10" points="
		94.632,104.131 90.667,114.264 75.208,108.214 81.257,92.757 90.805,96.491 	"/>
	<path fill="none" stroke="#45250F" stroke-width="5.3062" stroke-linejoin="round" stroke-miterlimit="10" d="M38.226,67.849
		c-0.647,0.042-1.299,0.062-1.956,0.062c-16.743,0-30.316-13.573-30.316-30.316c0-16.743,13.573-30.314,30.317-30.314
		s30.317,13.573,30.317,30.314"/>
	<path fill="none" stroke="#45250F" stroke-width="5.3062" stroke-linejoin="round" stroke-miterlimit="10" d="M22.895,22.919
		c3.53-3.218,8.224-5.18,13.376-5.18c10.967,0,19.857,8.891,19.857,19.857"/>
	<path fill="none" stroke="#45250F" stroke-width="5.3062" stroke-linejoin="round" stroke-miterlimit="10" d="M16.506,35.661
		c0.301-3.114,1.321-6.018,2.892-8.542"/>
	<path fill="none" stroke="#45250F" stroke-width="5.3062" stroke-linejoin="round" stroke-miterlimit="10" d="M37.551,57.413
		c-0.424,0.026-0.851,0.04-1.281,0.04c-9.79,0-17.926-7.085-19.559-16.407"/>
	<polyline fill="none" stroke="#45250F" stroke-width="5.3062" stroke-linejoin="round" stroke-miterlimit="10" points="
		112.6,98.172 125.182,19.769 170.596,4.546 	"/>
	<polygon fill="none" stroke="#45250F" stroke-width="5.3062" stroke-linejoin="round" stroke-miterlimit="10" points="
		127.35,194.919 48.71,194.919 37.397,38.562 138.665,38.562 	"/>
	<polyline fill="none" stroke="#45250F" stroke-width="5.3062" stroke-linejoin="round" stroke-miterlimit="10" points="
		79.174,98.079 53.159,98.079 59.34,183.495 116.721,183.495 122.9,98.079 112.6,98.079 	"/>
	
		<line fill="none" stroke="#45250F" stroke-width="5.3062" stroke-linejoin="round" stroke-miterlimit="10" x1="137.521" y1="51.359" x2="53.159" y2="51.359"/>
	<circle fill="#FFFFFF" stroke="#45250F" stroke-width="1.7687" stroke-miterlimit="10" cx="103.705" cy="132.358" r="2.842"/>
	<circle fill="#FFFFFF" stroke="#45250F" stroke-width="1.7687" stroke-miterlimit="10" cx="81.536" cy="146.004" r="3.348"/>
	<circle fill="#FFFFFF" stroke="#45250F" stroke-width="1.7687" stroke-miterlimit="10" cx="103.705" cy="165.384" r="3.349"/>
	<circle fill="#FFFFFF" stroke="#45250F" stroke-width="1.7687" stroke-miterlimit="10" cx="75.208" cy="126.674" r="2.843"/>
	<circle fill="#FFFFFF" stroke="#45250F" stroke-width="1.7687" stroke-miterlimit="10" cx="74.118" cy="165.712" r="2.842"/>
</g>
</svg>
