<?xml version="1.0" encoding="utf-8"?>
<!-- Generator: Adobe Illustrator 16.0.0, SVG Export Plug-In . SVG Version: 6.00 Build 0)  -->
<!DOCTYPE svg PUBLIC "-//W3C//DTD SVG 1.1//EN" "http://www.w3.org/Graphics/SVG/1.1/DTD/svg11.dtd">
<svg version="1.1" id="Layer_1" xmlns="http://www.w3.org/2000/svg" xmlns:xlink="http://www.w3.org/1999/xlink" x="0px" y="0px"
	 width="50px" height="50px" viewBox="0 0 220.454 154.545" enable-background="new 0 0 220.454 154.545"
	 xml:space="preserve">
<g>
	
		<circle fill="none" stroke="#45250F" stroke-width="5.4205" stroke-linejoin="round" stroke-miterlimit="10" cx="115.482" cy="81.956" r="64.013"/>
	<path fill="none" stroke="#45250F" stroke-width="5.4205" stroke-linejoin="round" stroke-miterlimit="10" d="M105.83,29.394
		c3.132-0.569,6.356-0.868,9.652-0.868"/>
	<path fill="none" stroke="#45250F" stroke-width="5.4205" stroke-linejoin="round" stroke-miterlimit="10" d="M76.747,45.154
		c6.194-6.52,14.018-11.474,22.817-14.218"/>
	<path fill="#FED393" stroke="#45250F" stroke-width="5.4205" stroke-linejoin="round" stroke-miterlimit="10" d="M135.051,118.997
		c-5.842,3.092-12.5,4.844-19.568,4.844c-23.133,0-41.886-18.753-41.886-41.885s18.753-41.885,41.886-41.885
		s41.885,18.753,41.885,41.885c0,11.333-4.502,21.617-11.814,29.156"/>
	
		<ellipse fill="none" stroke="#45250F" stroke-width="5.4205" stroke-linejoin="round" stroke-miterlimit="10" cx="25.591" cy="40.08" rx="20.813" ry="29.211"/>
	<path fill="none" stroke="#45250F" stroke-width="3.6137" stroke-linejoin="round" stroke-miterlimit="10" d="M35.144,25.009
		c2.848,4.532,4.576,10.483,4.576,17.001"/>
	<path fill="none" stroke="#45250F" stroke-width="3.6137" stroke-linejoin="round" stroke-miterlimit="10" d="M30.821,19.958
		c0.884,0.746,1.721,1.593,2.5,2.53"/>
	<g>
		<path fill="#70B9D6" stroke="#45250F" stroke-width="1.8068" stroke-miterlimit="10" d="M23.157,69.081
			c-0.664-0.111-1.318-0.261-1.962-0.455l-0.031,0.649C21.837,69.253,22.501,69.19,23.157,69.081z"/>
	</g>
	<path fill="none" stroke="#45250F" stroke-width="5.4205" stroke-linejoin="round" stroke-miterlimit="10" d="M25.591,69.291
		c-1.509,0-2.978-0.237-4.396-0.665l-3.404,71.256c-0.214,4.453,3.34,8.184,7.8,8.184s8.013-3.729,7.801-8.184l-3.404-71.256
		C28.568,69.054,27.101,69.291,25.591,69.291z"/>
	<path fill="none" stroke="#45250F" stroke-width="5.4205" stroke-linejoin="round" stroke-miterlimit="10" d="M194.493,5.429
		l1.262,2.232c13.269,23.454,20.24,49.94,20.24,76.885v10.727l-10.75,5.76v5.376h-10.752V5.429z"/>
	<path fill="none" stroke="#45250F" stroke-width="3.6137" stroke-linejoin="round" stroke-miterlimit="10" d="M203.174,48.03
		c3.566,13.213,5.396,26.893,5.396,40.691v10.727"/>
	<path fill="none" stroke="#45250F" stroke-width="3.6137" stroke-linejoin="round" stroke-miterlimit="10" d="M194.499,23.938
		c2.734,6.003,5.086,12.163,7.037,18.44"/>
	
		<rect x="194.493" y="106.408" fill="none" stroke="#45250F" stroke-width="5.4205" stroke-linejoin="round" stroke-miterlimit="10" width="10.752" height="43.481"/>
</g>
</svg>
