<?xml version="1.0" encoding="utf-8"?>
<!-- Generator: Adobe Illustrator 26.3.1, SVG Export Plug-In . SVG Version: 6.00 Build 0)  -->
<svg version="1.1" id="Layer_1" xmlns="http://www.w3.org/2000/svg" xmlns:xlink="http://www.w3.org/1999/xlink" x="0px" y="0px"
	 viewBox="0 0 292.2 292.2" style="enable-background:new 0 0 292.2 292.2;" xml:space="preserve">
<style type="text/css">
	.st0{fill:#FFFFFF;}
	.st1{fill:none;stroke:#FFFFFF;stroke-miterlimit:10;}
	.st2{opacity:0.25;fill:none;stroke:#C4C3C7;stroke-miterlimit:10;enable-background:new    ;}
	.st3{enable-background:new    ;}
</style>
<g id="a">
	<g>
		<path class="st0" d="M146,6.3C76.5,6.3,17.7,57.9,8.1,127.2C-2.6,204,52,275.5,128.5,284.9c26.2,3.2,51.4-0.4,75.4-11.5
			c0.6-0.3,1.2-0.6,1.8-0.8c2.2-0.9,4.6-2.1,5.8,1c1.1,2.8-1.1,3.8-3.1,4.8c-15.6,7.6-32.1,12.1-49.3,13.4
			c-38.4,2.9-73.3-6.9-103.5-31.1c-31.8-25.5-50-58.6-54.6-99.2c-2.8-25,0.5-49.4,10.8-72.2C34.4,39.1,73,9,127.8,1.5
			c40.9-5.6,78,5,110.1,31.1c33,26.9,51.2,62,54,104.6c2.3,35.2-7.2,67.2-28.1,95.7c-0.5,0.7-0.9,1.4-1.5,2c-1.3,1.5-2.9,2.5-4.8,1
			c-1.8-1.4-1.5-3.1-0.3-4.9c3.8-5.3,7.5-10.6,10.7-16.3c31-54.3,20.9-125.4-24.2-168.7C216.4,19.9,183.7,6.9,146,6.3L146,6.3z"/>
		<path class="st0" d="M251.8,146c0-11.8-1.6-23.2-5.7-34.3c-0.9-2.5-2.4-5.6,1.2-6.8c3.8-1.3,4.1,2.4,4.9,4.8
			c14.9,40.7,2.1,90.8-30.3,119.3c-27.6,24.3-59.6,33.9-95.7,27.6c-44-7.7-83.4-42.9-90.7-94c-1.6-11-1.6-21.9,0-32.9
			c0.3-2.4,0.5-5.1,3.8-4.7c3.3,0.4,2.8,2.9,2.5,5.4c-4.5,35.9,5.8,66.8,31.7,92.2c9.6,9.4,20.8,16.6,33.3,21.6
			c61.3,24.6,129.9-11.9,143.4-77.9C251.4,159.7,251.8,152.8,251.8,146L251.8,146z"/>
		<path class="st0" d="M149.3,33.9c32.9,1.8,60,14.3,81.5,38.7c0.2,0.2,0.5,0.5,0.7,0.8c1.3,2.1,4.6,4.1,1.6,6.7
			c-3,2.7-4.7-0.6-6.4-2.5C192,38.6,140,29.3,94.4,54c-2.6,1.4-5.1,3.2-7.6,4.8c-2.1,1.3-4.3,3.5-6.4,0.3c-2-3.1,1-4.4,3-5.8
			c10.2-7.1,21.4-12.1,33.4-15.4C127.6,34.9,138.6,33.8,149.3,33.9L149.3,33.9z"/>
		<path class="st0" d="M254.5,243.3c-0.2,1.4-1.1,2.4-2,3.3c-3.7,3.5-7.4,7-11.1,10.5c-1.7,1.6-3.5,2.2-5.2,0.3
			c-1.7-1.9-0.7-3.6,0.9-5.1c3.8-3.6,7.6-7.3,11.4-11c1.3-1.2,2.7-2,4.4-1C254,241,254.4,242,254.5,243.3L254.5,243.3z"/>
		<path class="st0" d="M42.1,116.9c-2.2-0.8-3.6-2.1-2.7-4.5c1.9-5.1,4-10.2,6.1-15.2c0.8-1.8,2.4-2.4,4.1-1.7
			c1.9,0.7,2.4,2.3,1.7,4.1c-2,5.1-4,10.2-6.1,15.2C44.6,116.1,43.5,116.7,42.1,116.9L42.1,116.9z"/>
		<g id="XMLID_00000090974613901360873470000009054230704721294757_">
			<circle class="st1" cx="145.2" cy="148.3" r="126"/>
		</g>
		<circle class="st2" cx="145.2" cy="148.3" r="88"/>
	</g>
	<g class="st3">
		<path class="st0" d="M111.3,203.5c-0.7,0.4-2.1,0.7-3.9,0.7c-4.2,0-7.3-2.6-7.3-7.5c0-4.6,3.1-7.8,7.7-7.8c1.8,0,3,0.4,3.5,0.7
			l-0.5,1.6c-0.7-0.4-1.8-0.6-3-0.6c-3.5,0-5.8,2.2-5.8,6.1c0,3.6,2.1,6,5.7,6c1.2,0,2.4-0.2,3.1-0.6L111.3,203.5z"/>
	</g>
	<g class="st3">
		<path class="st0" d="M116.2,199.3l-1.5,4.7h-2l5-14.8h2.3l5.1,14.8h-2l-1.6-4.7H116.2z M121.1,197.8l-1.5-4.3
			c-0.3-1-0.5-1.8-0.8-2.7l0,0c-0.2,0.9-0.5,1.8-0.7,2.7l-1.5,4.3H121.1z"/>
	</g>
	<g class="st3">
		<path class="st0" d="M128.4,190.8h-4.5v-1.6h11v1.6h-4.5V204h-1.9v-13.2H128.4z"/>
		<path class="st0" d="M144.2,197h-5.8v5.3h6.4v1.6h-8.3v-14.8h8v1.6h-6.1v4.7h5.8V197z"/>
		<path class="st0" d="M147.3,189.3c1-0.2,2.4-0.3,3.7-0.3c2,0,3.4,0.4,4.3,1.2c0.7,0.7,1.2,1.7,1.2,2.8c0,2-1.2,3.3-2.8,3.8v0.1
			c1.1,0.4,1.8,1.5,2.2,3c0.5,2.1,0.8,3.5,1.1,4.1h-2c-0.2-0.4-0.6-1.7-1-3.5c-0.4-2-1.2-2.8-3-2.9h-1.8v6.4h-1.9L147.3,189.3
			L147.3,189.3z M149.3,196.1h2c2,0,3.3-1.1,3.3-2.8c0-1.9-1.4-2.8-3.4-2.8c-0.9,0-1.6,0.1-1.9,0.2V196.1z"/>
		<path class="st0" d="M161.1,189.1v14.8h-1.9v-14.8H161.1z"/>
		<path class="st0" d="M164.4,204v-14.8h2.1l4.8,7.5c1.1,1.7,2,3.3,2.7,4.8l0,0c-0.2-2-0.2-3.8-0.2-6.1v-6.2h1.8V204h-1.9l-4.7-7.5
			c-1-1.7-2-3.3-2.8-5h-0.1c0.1,1.9,0.2,3.7,0.2,6.1v6.3L164.4,204L164.4,204z"/>
		<path class="st0" d="M190.2,203.3c-0.9,0.3-2.6,0.8-4.6,0.8c-2.2,0-4.1-0.6-5.5-2c-1.3-1.2-2.1-3.2-2.1-5.5c0-4.4,3.1-7.7,8-7.7
			c1.7,0,3.1,0.4,3.7,0.7l-0.5,1.6c-0.8-0.4-1.8-0.6-3.3-0.6c-3.6,0-6,2.2-6,6s2.3,6,5.7,6c1.3,0,2.1-0.2,2.6-0.4v-4.4h-3v-1.5h4.9
			L190.2,203.3L190.2,203.3z"/>
	</g>
	<g class="st3">
		<path class="st0" d="M121,99.9c-10.7,17.5-26.7,47.8-30.2,60.9c-0.6,2.2,0,4.1,0.6,5.3c0.6,1.8-2.8,3.4-2.9,0.2
			c-0.4-11.4,20.3-51.2,29.3-66.9c-16.3-2.6-36.7-5.4-49-4.1C64.3,95.8,54.9,98,58,105.6c1.8,4.6,5.3,9.7,7.9,12.9
			c2.2,2.7,0.9,2.4-0.5,0.9c-4.1-4.1-6.6-7.3-8.9-11.5c-4.3-7.9,6-13.4,11.5-14.5c9.2-1.9,32.8,0.9,51.5,2.8
			c0.9-1.3,1.6-2.3,2.1-2.8c0.4-0.4,0.2-1.1-0.3-1s-1.5,0.3-2.2,0.6c-1.2,0.4-1.2-0.3-0.2-0.9c1.4-1.1,4.2-3.2,5.9-3.4
			c1.6-0.3,2.6,1.4,1.6,2.8c-0.9,1.6-2.2,3.4-3.5,5.3c7.8,0.9,14.7,1.6,18.5,1.6c2,0,2.4-1.3,2.2-2.3c-0.2-1.1-0.3-1.8-0.9-3
			c-0.9-2.3,0-2.8,1.2-0.7c0.7,1.2,2.5,4.3,1.5,6.7c-0.4,0.6-0.9,1.7-1.8,2.5c-1.1,0.9-1.9,1.6-3.2,1.5
			C136.9,102.4,129.7,101.4,121,99.9z"/>
	</g>
	<g class="st3">
		<path class="st0" d="M102.2,160.9c-1,0-1.5-0.7-1.5-2.1c0-2.8,2.2-6.5,6.7-11c4.1-4.1,7.8-6.7,10.9-7.9c0.7-0.3,1.6-0.5,2.5-0.5
			c1,0,1.9,0.2,2.9,0.5c0.6,0.1,1,0.1,1.2,0.1c0.7-0.1,1.2-0.4,1.6-0.8c0.1-0.1,0.2-0.1,0.4-0.1c0.3,0,0.6,0.5,0.5,0.7
			c-2.3,3.6-4.7,7.1-6.8,10.7c-3.4,5.7-6.7,15.4-7.4,20.1c-0.1,0.4-0.1,0.8-0.1,1.2c0,2.7,1.8,4.1,4.7,4.1c1.4,0,2.9-0.2,4.3-0.7
			c2.2-0.7,5-2.5,8.4-5.2c3.3-2.7,5.9-5.6,7.9-8.1c0.4-0.4,0.5-0.6,0.7-0.6c0.1,0.1,0.1,0.1,0.1,0.2c0,0.2-0.1,0.4-0.2,0.7
			c-1.8,2.7-4.5,5.9-8.1,9c-3.3,2.7-6.1,4.5-8.3,5.3c-1.1,0.4-2.2,0.6-3.5,0.6c-1.9,0-3.6-0.8-4.8-1.6c-1.5-1-2.1-2.7-2-4.7
			c0.1-3.4,2.8-12.1,5-16.8c1.3-2.9,2.7-5.5,4.1-7.5c0.3-0.5,0.3-0.7-0.1-0.7c-0.1,0-0.1,0.1-0.2,0.1c-1.9,2.3-4.7,4.9-8.2,7.9
			s-6.5,5.2-9.1,6.7C103.1,160.7,102.7,160.9,102.2,160.9z M104.3,156.7c0,1,0.4,1.5,1.1,1.5c0.2,0,0.6-0.1,0.9-0.3
			c4.5-2.8,9.5-7.7,15.2-14.5c0.1-0.1,0.2-0.2,0.2-0.4c0-0.9-1.2-1.8-2.8-1.8c-0.5,0-0.9,0.1-1.4,0.2c-1.9,0.5-4.4,2.4-7.2,5.5
			c-2.7,3-4.6,5.9-5.8,8.5C104.4,155.8,104.3,156.2,104.3,156.7z"/>
	</g>
	<g class="st3">
		<path class="st0" d="M121.6,162c-0.1-0.2-0.1-0.4,0.1-0.6c3.9-6.1,6.6-10.7,8-14c0.2-0.6,0.4-1.1,0.4-1.5c0-0.1-0.1-0.3-0.2-0.7
			c-0.1-0.2-0.1-0.3,0-0.4c0.5-0.2,2-1,4.5-2.5c0.1-0.1,0.2-0.1,0.2-0.1c0.2,0,0.4,0.1,0.5,0.3s0.1,0.5-0.1,0.7
			c-2.6,3.5-4.4,6.2-5.3,7.9c-0.1,0.2-0.2,0.4-0.2,0.6s0.2,0.2,0.7,0.1c0.3-0.1,0.6-0.3,0.7-0.5c1.5-1.8,3.6-3.8,6.1-5.9
			c2.6-2.1,4.6-3.5,6.1-4.1c1.3-0.1,2.2,0.1,2.8,0.4c0.1,0.1,0.1,0.1,0.1,0.1c0,0.5-1.3,1.9-1.8,1.6c-0.8-0.4-1.9-0.2-3.3,0.5
			c-5.9,3.3-11.3,8.7-16,16.5c0,0.1-0.1,0.2-0.5,0.4c-0.6,0.2-1.5,0.6-2.5,1.2C121.8,162.2,121.7,162.2,121.6,162z"/>
	</g>
	<g class="st3">
		<path class="st0" d="M166.1,133.1c-0.6-0.1-1.3-0.1-1.8-0.3c-1.1-0.1-2.2-1.6-2.2-2.8c0-0.5,0.2-0.8,0.4-1c2-2.2,5-3.6,8.9-4.5
			h0.1c2.3-3.5,4.4-6.4,6.2-8.7c9.2-11.8,18.5-19.3,28-22.7c3.2-1.1,6.3-1.7,9.4-1.7c5.2,0,9.5,1.5,13,4.4c3.3,2.8,5,6.2,5,10.1
			c0,3-1,5.8-3.1,8.5c-2.2,2.9-5.6,5.5-10,7.5c-16.2,7.6-32.1,11.4-47.7,11.4c-1.5,0-2.9,0-4.2-0.1c-1.8,3.1-3.6,6.2-5.3,9.7
			c-3.8,7.4-5.7,13.1-5.6,17.4c0,0.2,0.1,0.4,0.4,0.7c0.3,0.1,0.6,0.1,1,0.2c0.2,0.1,0.2,0.2,0.1,0.5c-0.1,0.2-0.2,0.4-0.5,0.4
			c-0.4,0.2-0.9,0.1-1.3-0.4c-0.4-0.7-0.7-1.6-0.7-2.8c0-2.4,1.2-6.5,3.5-12.8c0.2-0.7,0.2-1-0.3-1c-0.1,0-0.2,0.1-0.4,0.2
			c-2.1,2.6-4.8,5.5-8.4,8.7c-4.1,3.6-7.4,6.1-9.9,7.1c-0.2,0.1-0.4,0.1-0.6,0.1c-1.5,0-2.2-0.7-2.2-2.1c0-2.7,2.4-6.3,7.1-10.8
			c4.3-4.1,7.9-6.7,11-7.9c0.7-0.3,1.6-0.5,2.5-0.5c0.8,0,2,0.2,3.3,0.6C163.3,137.9,164.7,135.4,166.1,133.1z M141.4,157.3
			c0,0.8,0.4,1.3,1,1.3c0.3,0,0.7-0.1,1-0.3c5.3-3.5,10.4-7.9,15.3-13.6c0.5-0.6,0.7-1.1,0.7-1.6c0-0.9-0.7-1.4-2.2-1.4
			c-0.5,0-1,0.1-1.6,0.2c-2.1,0.5-4.6,2.4-7.8,5.5c-3.1,3.1-5.1,6-6.2,8.5C141.5,156.4,141.4,156.8,141.4,157.3z M166.7,132.2
			c1.6-2.5,3.1-5,4.5-7.1c-3.5,1-6,2.5-7.7,4.5c-0.3,0.3-0.4,0.7-0.4,1.1c0,0.7,0.4,1.1,1.3,1.2C165.1,132,165.9,132.1,166.7,132.2z
			 M168.7,132.4c1.1,0.1,2.2,0.1,3.6,0.1c16.8,0,32.5-4.2,46.9-12.6c8.4-4.8,12.6-10,12.6-15.4c0-3.5-1.7-6.4-5.1-8.7
			s-7.3-3.6-11.9-3.6c-3,0-5.9,0.6-8.7,1.8C193.1,99.4,180.6,112.2,168.7,132.4z"/>
		<path class="st0" d="M168.6,161.6c-0.9,0.4-4.6-0.7-4.5-3.6c0.1-3.9,6.4-15.4,6.6-16.4c0.3-1.9,3.9-1.5,2.4,1.5
			c-8.2,15.6-3.8,7.3-6.7,13.3c-2,4.1,0.4,4.1,1.9,3.7c3-0.7,5.2-2.2,7.4-4.3c1.4-1.4,1.3-0.2,0.4,0.7
			C174,158.4,172.1,160.1,168.6,161.6z M175.3,137c-0.9,0.8-1.6,1.2-2.2,1.1c-0.9-0.2-1.3-0.5-1.3-1s0.4-1.3,1.4-2.2
			c0.9-1,1.6-1.5,2.2-1.6c0.8-0.2,1.9,0.7,1.6,1.5C176.9,135.3,176.3,136.1,175.3,137z"/>
		<path class="st0" d="M183.4,136.9c-0.2,0-0.4-0.1-0.4-0.4c0-0.1,0.1-0.3,0.2-0.4c2.4-1.6,3.7-3.6,3.9-5.9c0.1-0.5-0.2-1.3-0.7-2.3
			c-0.2-0.2,0.1-0.7,0.8-1.2c0.8-0.6,1.3-0.8,1.5-0.7c0.4,0.1,0.6,0.5,0.8,1.5c0.3,1,0.4,1.6,0.2,2C189,131.5,186.9,134,183.4,136.9
			C183.6,136.8,183.5,136.9,183.4,136.9z"/>
		<path class="st0" d="M211.7,148.4L211.7,148.4c-5.6,1.2-11.5,3.6-17.9,7.3c1,1.4,1.5,2.3,1.5,2.8c0,1.2-1.3,2.2-4,3.4
			c-2.3,1-4.2,1.5-5.5,1.5c-0.5,0-0.9-0.1-1.3-0.2c-1.1,0.2-1.8,0.4-2.2,0.2c-0.6-0.1-0.7-0.3-0.4-0.8c0.7-0.9,3.5-3,8.2-6.2
			l-1.9-2.6c-0.8-1.2-1.3-2.2-1.5-3.3c-0.4-2.7,2.4-5.7,8.2-9.1c5.8-3.4,11-5.1,15.4-5c0.2,0,0.5,0.1,0.7,0.4c0.2,0.4,0.2,0.6,0,0.8
			c-0.5,0.8-2.2,1.9-2.7,1.7c-1.8-0.6-3.1-0.8-4-0.8c-0.5,0-1,0.1-1.3,0.1c-2.2,0.5-4.9,1.9-8,4.1c-3.8,2.6-5.6,4.9-5.3,6.9
			c0.1,0.9,0.6,1.9,1.3,3.1c0.8,1.2,1.5,1.9,2.1,2.2C199.5,151.1,205.7,149.4,211.7,148.4z M185.2,162.7c0.7,0.2,2-0.1,3.7-0.7
			c1.6-0.6,2.7-1.1,3.2-1.7c0.2-0.2,0.2-0.5,0.2-0.7c0-0.7-0.5-1.4-1.4-2.2c-0.6,0.4-1.6,1-3,2.1c-1.6,1.2-2.6,1.9-3,2.5
			C184.6,162.4,184.8,162.7,185.2,162.7z"/>
	</g>
</g>
<g id="c">
</g>
</svg>
